<svg width="335" height="391" viewBox="0 0 335 391" fill="none" xmlns="http://www.w3.org/2000/svg">
<g filter="url(#filter0_f_1_343)">
<ellipse cx="235" cy="58.5" rx="64" ry="48.5" fill="url(#paint0_radial_1_343)"/>
</g>
<rect x="10.5" y="30.5" width="269" height="61" rx="15.5" fill="#131516"/>
<rect x="10.5" y="30.5" width="269" height="61" rx="15.5" stroke="#4D5358"/>
<rect x="23.5" y="38.5" width="50" height="45" rx="7.5" fill="#131313"/>
<rect x="23.5" y="38.5" width="50" height="45" rx="7.5" stroke="#4D5358"/>
<path d="M59 61.3813C59 63.3476 58.5363 65.1414 57.615 66.7563C56.7028 68.3617 55.444 69.641 53.8614 70.5909C52.2726 71.5329 50.4863 72 48.4962 72C46.5061 72 44.7593 71.5329 43.169 70.5909C41.5879 69.641 40.3291 68.3617 39.3926 66.7563C38.4637 65.1414 38 63.3476 38 61.3813C38 59.3896 38.4637 57.5878 39.3926 55.9729C40.3291 54.3675 41.5879 53.0883 43.169 52.1637C44.0812 51.6317 45.0497 51.2454 46.0804 51.0253V55.3111C43.9961 56.2532 42.5396 58.4254 42.5396 60.9395C42.5396 64.3324 45.1834 67.0841 48.4399 67.0841C51.698 67.0841 54.3403 64.3308 54.3403 60.9395C54.3403 58.4238 52.8853 56.2532 50.7995 55.3111V51C51.8698 51.2217 52.8762 51.6064 53.8203 52.1637C55.409 53.0899 56.6678 54.3675 57.5968 55.9729C58.5257 57.5862 58.997 59.3896 58.997 61.3813H59Z" fill="url(#paint1_linear_1_343)" stroke="#00F0C9" stroke-width="0.5" stroke-miterlimit="10"/>
<path d="M46.0805 55.2858C46.0805 55.2858 48.4415 54.529 50.8011 55.2858V60.6086H46.0805V55.2858Z" fill="url(#paint2_linear_1_343)" stroke="#00F0C9" stroke-width="0.5" stroke-miterlimit="10"/>
<path d="M99.512 67.176C98.7013 67.176 97.944 67.032 97.24 66.744C96.536 66.4453 95.9173 66.0347 95.384 65.512C94.8507 64.9787 94.4347 64.3653 94.136 63.672C93.848 62.968 93.704 62.2107 93.704 61.4C93.704 60.5893 93.848 59.8373 94.136 59.144C94.4347 58.44 94.8507 57.8267 95.384 57.304C95.9173 56.7707 96.536 56.36 97.24 56.072C97.944 55.7733 98.7013 55.624 99.512 55.624C100.099 55.624 100.659 55.6987 101.192 55.848C101.736 55.9867 102.237 56.1947 102.696 56.472C103.165 56.7387 103.581 57.0693 103.944 57.464L103.128 58.328C102.691 57.8267 102.152 57.4427 101.512 57.176C100.872 56.8987 100.205 56.76 99.512 56.76C98.8613 56.76 98.2587 56.8773 97.704 57.112C97.1493 57.3467 96.664 57.6773 96.248 58.104C95.8427 58.52 95.5227 59.0107 95.288 59.576C95.064 60.1307 94.952 60.7387 94.952 61.4C94.952 62.0507 95.064 62.6587 95.288 63.224C95.5227 63.7893 95.848 64.2853 96.264 64.712C96.68 65.128 97.1653 65.4533 97.72 65.688C98.2853 65.9227 98.8933 66.04 99.544 66.04C100.237 66.04 100.899 65.9067 101.528 65.64C102.157 65.3627 102.685 64.984 103.112 64.504L103.912 65.336C103.539 65.72 103.117 66.0507 102.648 66.328C102.189 66.6053 101.693 66.8187 101.16 66.968C100.627 67.1067 100.077 67.176 99.512 67.176ZM109.683 67.144C109.096 67.144 108.579 67.0427 108.131 66.84C107.694 66.6373 107.347 66.3547 107.091 65.992C106.846 65.6293 106.723 65.208 106.723 64.728C106.723 63.9707 107.011 63.3733 107.587 62.936C108.163 62.4987 108.942 62.28 109.923 62.28C110.787 62.28 111.571 62.4613 112.275 62.824V61.768C112.275 61.128 112.094 60.648 111.731 60.328C111.368 59.9973 110.84 59.832 110.147 59.832C109.752 59.832 109.352 59.8907 108.947 60.008C108.552 60.1147 108.115 60.2907 107.635 60.536L107.187 59.624C107.763 59.3467 108.296 59.144 108.787 59.016C109.278 58.888 109.768 58.824 110.259 58.824C111.272 58.824 112.051 59.064 112.595 59.544C113.15 60.024 113.427 60.712 113.427 61.608V67H112.275V66.216C111.912 66.5253 111.512 66.76 111.075 66.92C110.648 67.0693 110.184 67.144 109.683 67.144ZM107.859 64.696C107.859 65.144 108.046 65.512 108.419 65.8C108.803 66.0773 109.294 66.216 109.891 66.216C110.371 66.216 110.808 66.1413 111.203 65.992C111.598 65.8427 111.955 65.608 112.275 65.288V63.784C111.944 63.56 111.592 63.4 111.219 63.304C110.846 63.1973 110.424 63.144 109.955 63.144C109.315 63.144 108.803 63.288 108.419 63.576C108.046 63.8533 107.859 64.2267 107.859 64.696ZM117.005 67V58.984H118.189V60.12C118.434 59.704 118.744 59.384 119.117 59.16C119.501 58.9253 119.938 58.808 120.429 58.808C120.706 58.808 120.957 58.8453 121.181 58.92V60.008C121.042 59.9547 120.904 59.9173 120.765 59.896C120.626 59.8747 120.488 59.864 120.349 59.864C119.858 59.864 119.426 60.008 119.053 60.296C118.69 60.5733 118.402 60.9787 118.189 61.512V67H117.005ZM127.288 67.16C126.595 67.16 126.061 66.9947 125.688 66.664C125.315 66.3333 125.128 65.8533 125.128 65.224V59.992H123.4V58.984H125.128V56.952L126.296 56.648V58.984H128.712V59.992H126.296V64.92C126.296 65.3467 126.392 65.656 126.584 65.848C126.776 66.0293 127.091 66.12 127.528 66.12C127.752 66.12 127.949 66.104 128.12 66.072C128.301 66.04 128.493 65.9867 128.696 65.912V66.952C128.493 67.0267 128.264 67.08 128.008 67.112C127.763 67.144 127.523 67.16 127.288 67.16ZM135.184 67.144C134.416 67.144 133.717 66.9627 133.088 66.6C132.469 66.2267 131.973 65.7253 131.6 65.096C131.237 64.4667 131.056 63.7627 131.056 62.984C131.056 62.216 131.232 61.5227 131.584 60.904C131.936 60.2747 132.41 59.7787 133.008 59.416C133.605 59.0427 134.272 58.856 135.008 58.856C135.722 58.856 136.362 59.0427 136.928 59.416C137.504 59.7787 137.957 60.2747 138.288 60.904C138.629 61.5227 138.8 62.216 138.8 62.984V63.352H132.224C132.288 63.8747 132.453 64.344 132.72 64.76C132.997 65.176 133.354 65.5067 133.792 65.752C134.229 65.9867 134.709 66.104 135.232 66.104C135.648 66.104 136.053 66.04 136.448 65.912C136.842 65.784 137.173 65.6027 137.44 65.368L138.176 66.152C137.728 66.4827 137.258 66.7333 136.768 66.904C136.288 67.064 135.76 67.144 135.184 67.144ZM132.256 62.408H137.616C137.552 61.928 137.392 61.5013 137.136 61.128C136.89 60.744 136.581 60.4453 136.208 60.232C135.834 60.008 135.424 59.896 134.976 59.896C134.517 59.896 134.096 60.0027 133.712 60.216C133.328 60.4293 133.008 60.728 132.752 61.112C132.496 61.4853 132.33 61.9173 132.256 62.408ZM142.055 67V58.984H143.239V67H142.055ZM142.647 57.448C142.434 57.448 142.247 57.368 142.087 57.208C141.927 57.048 141.847 56.856 141.847 56.632C141.847 56.4187 141.927 56.2373 142.087 56.088C142.247 55.928 142.434 55.848 142.647 55.848C142.871 55.848 143.058 55.928 143.207 56.088C143.367 56.2373 143.447 56.424 143.447 56.648C143.447 56.8613 143.367 57.048 143.207 57.208C143.058 57.368 142.871 57.448 142.647 57.448ZM146.858 67V58.984H148.042V60.12C148.287 59.704 148.597 59.384 148.97 59.16C149.354 58.9253 149.791 58.808 150.282 58.808C150.559 58.808 150.81 58.8453 151.034 58.92V60.008C150.895 59.9547 150.757 59.9173 150.618 59.896C150.479 59.8747 150.341 59.864 150.202 59.864C149.711 59.864 149.279 60.008 148.906 60.296C148.543 60.5733 148.255 60.9787 148.042 61.512V67H146.858ZM156.111 67.144C155.524 67.144 155.007 67.0427 154.559 66.84C154.122 66.6373 153.775 66.3547 153.519 65.992C153.274 65.6293 153.151 65.208 153.151 64.728C153.151 63.9707 153.439 63.3733 154.015 62.936C154.591 62.4987 155.37 62.28 156.351 62.28C157.215 62.28 157.999 62.4613 158.703 62.824V61.768C158.703 61.128 158.522 60.648 158.159 60.328C157.796 59.9973 157.268 59.832 156.575 59.832C156.18 59.832 155.78 59.8907 155.375 60.008C154.98 60.1147 154.543 60.2907 154.063 60.536L153.615 59.624C154.191 59.3467 154.724 59.144 155.215 59.016C155.706 58.888 156.196 58.824 156.687 58.824C157.7 58.824 158.479 59.064 159.023 59.544C159.578 60.024 159.855 60.712 159.855 61.608V67H158.703V66.216C158.34 66.5253 157.94 66.76 157.503 66.92C157.076 67.0693 156.612 67.144 156.111 67.144ZM154.287 64.696C154.287 65.144 154.474 65.512 154.847 65.8C155.231 66.0773 155.722 66.216 156.319 66.216C156.799 66.216 157.236 66.1413 157.631 65.992C158.026 65.8427 158.383 65.608 158.703 65.288V63.784C158.372 63.56 158.02 63.4 157.647 63.304C157.274 63.1973 156.852 63.144 156.383 63.144C155.743 63.144 155.231 63.288 154.847 63.576C154.474 63.8533 154.287 64.2267 154.287 64.696ZM168.695 67V55.8H176.711V56.888H169.927V60.888H174.375V61.96H169.927V67H168.695ZM176.845 67L181.485 55.8H182.973L187.581 67H186.237L184.829 63.48H179.549L178.125 67H176.845ZM179.981 62.424H184.397L182.189 56.936L179.981 62.424ZM191.561 67V56.904H187.513V55.8H196.841V56.904H192.793V67H191.561ZM204.399 67.176C203.588 67.176 202.831 67.032 202.127 66.744C201.433 66.4453 200.82 66.0347 200.287 65.512C199.764 64.9787 199.353 64.3653 199.055 63.672C198.767 62.968 198.623 62.2107 198.623 61.4C198.623 60.5893 198.767 59.8373 199.055 59.144C199.353 58.44 199.764 57.8267 200.287 57.304C200.82 56.7707 201.433 56.36 202.127 56.072C202.831 55.7733 203.588 55.624 204.399 55.624C205.199 55.624 205.945 55.7733 206.639 56.072C207.343 56.36 207.956 56.7707 208.479 57.304C209.012 57.8267 209.423 58.44 209.711 59.144C210.009 59.8373 210.159 60.5893 210.159 61.4C210.159 62.2107 210.009 62.968 209.711 63.672C209.423 64.3653 209.012 64.9787 208.479 65.512C207.956 66.0347 207.343 66.4453 206.639 66.744C205.945 67.032 205.199 67.176 204.399 67.176ZM204.399 66.04C205.039 66.04 205.631 65.9227 206.175 65.688C206.719 65.4533 207.193 65.128 207.599 64.712C208.015 64.2853 208.335 63.7893 208.559 63.224C208.793 62.6587 208.911 62.0507 208.911 61.4C208.911 60.7387 208.793 60.1307 208.559 59.576C208.335 59.0107 208.015 58.52 207.599 58.104C207.193 57.6773 206.719 57.3467 206.175 57.112C205.631 56.8773 205.039 56.76 204.399 56.76C203.759 56.76 203.161 56.8773 202.607 57.112C202.063 57.3467 201.583 57.6773 201.167 58.104C200.761 58.52 200.441 59.0107 200.207 59.576C199.983 60.1307 199.871 60.7333 199.871 61.384C199.871 62.0453 199.983 62.6587 200.207 63.224C200.441 63.7893 200.761 64.2853 201.167 64.712C201.583 65.128 202.063 65.4533 202.607 65.688C203.161 65.9227 203.759 66.04 204.399 66.04ZM213.688 67V55.8H218.488C219.224 55.8 219.864 55.9333 220.408 56.2C220.952 56.4667 221.374 56.84 221.672 57.32C221.982 57.8 222.136 58.3653 222.136 59.016C222.136 59.752 221.918 60.3867 221.48 60.92C221.054 61.4427 220.478 61.8107 219.752 62.024L222.264 67H220.904L218.504 62.184H214.92V67H213.688ZM214.92 61.144H218.408C219.166 61.144 219.768 60.952 220.216 60.568C220.675 60.184 220.904 59.6667 220.904 59.016C220.904 58.376 220.675 57.864 220.216 57.48C219.768 57.096 219.166 56.904 218.408 56.904H214.92V61.144Z" fill="white"/>
<g filter="url(#filter1_f_1_343)">
<ellipse cx="104" cy="195.5" rx="94" ry="48.5" fill="url(#paint3_radial_1_343)"/>
</g>
<rect x="44.5" y="165.5" width="290" height="61" rx="15.5" fill="#131516"/>
<rect x="44.5" y="165.5" width="290" height="61" rx="15.5" stroke="#4D5358"/>
<rect x="54.5" y="173.5" width="50" height="45" rx="7.5" fill="#131313"/>
<rect x="54.5" y="173.5" width="50" height="45" rx="7.5" stroke="#4D5358"/>
<path d="M124.512 202.176C123.701 202.176 122.944 202.032 122.24 201.744C121.536 201.445 120.917 201.035 120.384 200.512C119.851 199.979 119.435 199.365 119.136 198.672C118.848 197.968 118.704 197.211 118.704 196.4C118.704 195.589 118.848 194.837 119.136 194.144C119.435 193.44 119.851 192.827 120.384 192.304C120.917 191.771 121.536 191.36 122.24 191.072C122.944 190.773 123.701 190.624 124.512 190.624C125.099 190.624 125.659 190.699 126.192 190.848C126.736 190.987 127.237 191.195 127.696 191.472C128.165 191.739 128.581 192.069 128.944 192.464L128.128 193.328C127.691 192.827 127.152 192.443 126.512 192.176C125.872 191.899 125.205 191.76 124.512 191.76C123.861 191.76 123.259 191.877 122.704 192.112C122.149 192.347 121.664 192.677 121.248 193.104C120.843 193.52 120.523 194.011 120.288 194.576C120.064 195.131 119.952 195.739 119.952 196.4C119.952 197.051 120.064 197.659 120.288 198.224C120.523 198.789 120.848 199.285 121.264 199.712C121.68 200.128 122.165 200.453 122.72 200.688C123.285 200.923 123.893 201.04 124.544 201.04C125.237 201.04 125.899 200.907 126.528 200.64C127.157 200.363 127.685 199.984 128.112 199.504L128.912 200.336C128.539 200.72 128.117 201.051 127.648 201.328C127.189 201.605 126.693 201.819 126.16 201.968C125.627 202.107 125.077 202.176 124.512 202.176ZM134.683 202.144C134.096 202.144 133.579 202.043 133.131 201.84C132.694 201.637 132.347 201.355 132.091 200.992C131.846 200.629 131.723 200.208 131.723 199.728C131.723 198.971 132.011 198.373 132.587 197.936C133.163 197.499 133.942 197.28 134.923 197.28C135.787 197.28 136.571 197.461 137.275 197.824V196.768C137.275 196.128 137.094 195.648 136.731 195.328C136.368 194.997 135.84 194.832 135.147 194.832C134.752 194.832 134.352 194.891 133.947 195.008C133.552 195.115 133.115 195.291 132.635 195.536L132.187 194.624C132.763 194.347 133.296 194.144 133.787 194.016C134.278 193.888 134.768 193.824 135.259 193.824C136.272 193.824 137.051 194.064 137.595 194.544C138.15 195.024 138.427 195.712 138.427 196.608V202H137.275V201.216C136.912 201.525 136.512 201.76 136.075 201.92C135.648 202.069 135.184 202.144 134.683 202.144ZM132.859 199.696C132.859 200.144 133.046 200.512 133.419 200.8C133.803 201.077 134.294 201.216 134.891 201.216C135.371 201.216 135.808 201.141 136.203 200.992C136.598 200.843 136.955 200.608 137.275 200.288V198.784C136.944 198.56 136.592 198.4 136.219 198.304C135.846 198.197 135.424 198.144 134.955 198.144C134.315 198.144 133.803 198.288 133.419 198.576C133.046 198.853 132.859 199.227 132.859 199.696ZM142.005 202V193.984H143.189V195.12C143.434 194.704 143.744 194.384 144.117 194.16C144.501 193.925 144.938 193.808 145.429 193.808C145.706 193.808 145.957 193.845 146.181 193.92V195.008C146.042 194.955 145.904 194.917 145.765 194.896C145.626 194.875 145.488 194.864 145.349 194.864C144.858 194.864 144.426 195.008 144.053 195.296C143.69 195.573 143.402 195.979 143.189 196.512V202H142.005ZM152.288 202.16C151.595 202.16 151.061 201.995 150.688 201.664C150.315 201.333 150.128 200.853 150.128 200.224V194.992H148.4V193.984H150.128V191.952L151.296 191.648V193.984H153.712V194.992H151.296V199.92C151.296 200.347 151.392 200.656 151.584 200.848C151.776 201.029 152.091 201.12 152.528 201.12C152.752 201.12 152.949 201.104 153.12 201.072C153.301 201.04 153.493 200.987 153.696 200.912V201.952C153.493 202.027 153.264 202.08 153.008 202.112C152.763 202.144 152.523 202.16 152.288 202.16ZM160.184 202.144C159.416 202.144 158.717 201.963 158.088 201.6C157.469 201.227 156.973 200.725 156.6 200.096C156.237 199.467 156.056 198.763 156.056 197.984C156.056 197.216 156.232 196.523 156.584 195.904C156.936 195.275 157.41 194.779 158.008 194.416C158.605 194.043 159.272 193.856 160.008 193.856C160.722 193.856 161.362 194.043 161.928 194.416C162.504 194.779 162.957 195.275 163.288 195.904C163.629 196.523 163.8 197.216 163.8 197.984V198.352H157.224C157.288 198.875 157.453 199.344 157.72 199.76C157.997 200.176 158.354 200.507 158.792 200.752C159.229 200.987 159.709 201.104 160.232 201.104C160.648 201.104 161.053 201.04 161.448 200.912C161.842 200.784 162.173 200.603 162.44 200.368L163.176 201.152C162.728 201.483 162.258 201.733 161.768 201.904C161.288 202.064 160.76 202.144 160.184 202.144ZM157.256 197.408H162.616C162.552 196.928 162.392 196.501 162.136 196.128C161.89 195.744 161.581 195.445 161.208 195.232C160.834 195.008 160.424 194.896 159.976 194.896C159.517 194.896 159.096 195.003 158.712 195.216C158.328 195.429 158.008 195.728 157.752 196.112C157.496 196.485 157.33 196.917 157.256 197.408ZM167.055 202V193.984H168.239V202H167.055ZM167.647 192.448C167.434 192.448 167.247 192.368 167.087 192.208C166.927 192.048 166.847 191.856 166.847 191.632C166.847 191.419 166.927 191.237 167.087 191.088C167.247 190.928 167.434 190.848 167.647 190.848C167.871 190.848 168.058 190.928 168.207 191.088C168.367 191.237 168.447 191.424 168.447 191.648C168.447 191.861 168.367 192.048 168.207 192.208C168.058 192.368 167.871 192.448 167.647 192.448ZM171.858 202V193.984H173.042V195.12C173.287 194.704 173.597 194.384 173.97 194.16C174.354 193.925 174.791 193.808 175.282 193.808C175.559 193.808 175.81 193.845 176.034 193.92V195.008C175.895 194.955 175.757 194.917 175.618 194.896C175.479 194.875 175.341 194.864 175.202 194.864C174.711 194.864 174.279 195.008 173.906 195.296C173.543 195.573 173.255 195.979 173.042 196.512V202H171.858ZM181.111 202.144C180.524 202.144 180.007 202.043 179.559 201.84C179.122 201.637 178.775 201.355 178.519 200.992C178.274 200.629 178.151 200.208 178.151 199.728C178.151 198.971 178.439 198.373 179.015 197.936C179.591 197.499 180.37 197.28 181.351 197.28C182.215 197.28 182.999 197.461 183.703 197.824V196.768C183.703 196.128 183.522 195.648 183.159 195.328C182.796 194.997 182.268 194.832 181.575 194.832C181.18 194.832 180.78 194.891 180.375 195.008C179.98 195.115 179.543 195.291 179.063 195.536L178.615 194.624C179.191 194.347 179.724 194.144 180.215 194.016C180.706 193.888 181.196 193.824 181.687 193.824C182.7 193.824 183.479 194.064 184.023 194.544C184.578 195.024 184.855 195.712 184.855 196.608V202H183.703V201.216C183.34 201.525 182.94 201.76 182.503 201.92C182.076 202.069 181.612 202.144 181.111 202.144ZM179.287 199.696C179.287 200.144 179.474 200.512 179.847 200.8C180.231 201.077 180.722 201.216 181.319 201.216C181.799 201.216 182.236 201.141 182.631 200.992C183.026 200.843 183.383 200.608 183.703 200.288V198.784C183.372 198.56 183.02 198.4 182.647 198.304C182.274 198.197 181.852 198.144 181.383 198.144C180.743 198.144 180.231 198.288 179.847 198.576C179.474 198.853 179.287 199.227 179.287 199.696ZM197.135 202.128C196.388 202.128 195.705 201.947 195.087 201.584C194.479 201.211 193.993 200.715 193.631 200.096C193.279 199.467 193.103 198.763 193.103 197.984C193.103 197.205 193.279 196.507 193.631 195.888C193.993 195.269 194.479 194.779 195.087 194.416C195.705 194.043 196.393 193.856 197.151 193.856C197.62 193.856 198.073 193.936 198.511 194.096C198.948 194.245 199.348 194.469 199.711 194.768V190.8L200.895 190.528V202H199.727V201.152C199.023 201.803 198.159 202.128 197.135 202.128ZM197.247 201.088C197.748 201.088 198.212 200.992 198.639 200.8C199.076 200.597 199.433 200.32 199.711 199.968V196C199.433 195.659 199.076 195.392 198.639 195.2C198.212 194.997 197.748 194.896 197.247 194.896C196.692 194.896 196.185 195.029 195.727 195.296C195.279 195.563 194.921 195.931 194.655 196.4C194.399 196.859 194.271 197.381 194.271 197.968C194.271 198.555 194.399 199.083 194.655 199.552C194.921 200.021 195.279 200.395 195.727 200.672C196.185 200.949 196.692 201.088 197.247 201.088ZM208.268 202.144C207.5 202.144 206.801 201.963 206.172 201.6C205.553 201.227 205.057 200.725 204.684 200.096C204.321 199.467 204.14 198.763 204.14 197.984C204.14 197.216 204.316 196.523 204.668 195.904C205.02 195.275 205.495 194.779 206.092 194.416C206.689 194.043 207.356 193.856 208.092 193.856C208.807 193.856 209.447 194.043 210.012 194.416C210.588 194.779 211.041 195.275 211.372 195.904C211.713 196.523 211.884 197.216 211.884 197.984V198.352H205.308C205.372 198.875 205.537 199.344 205.804 199.76C206.081 200.176 206.439 200.507 206.876 200.752C207.313 200.987 207.793 201.104 208.316 201.104C208.732 201.104 209.137 201.04 209.532 200.912C209.927 200.784 210.257 200.603 210.524 200.368L211.26 201.152C210.812 201.483 210.343 201.733 209.852 201.904C209.372 202.064 208.844 202.144 208.268 202.144ZM205.34 197.408H210.7C210.636 196.928 210.476 196.501 210.22 196.128C209.975 195.744 209.665 195.445 209.292 195.232C208.919 195.008 208.508 194.896 208.06 194.896C207.601 194.896 207.18 195.003 206.796 195.216C206.412 195.429 206.092 195.728 205.836 196.112C205.58 196.485 205.415 196.917 205.34 197.408ZM221.633 200.88H224.161C224.811 200.88 225.414 200.768 225.969 200.544C226.523 200.32 227.009 200.005 227.425 199.6C227.841 199.195 228.161 198.72 228.385 198.176C228.619 197.632 228.737 197.04 228.737 196.4C228.737 195.76 228.619 195.168 228.385 194.624C228.161 194.08 227.841 193.605 227.425 193.2C227.009 192.795 226.523 192.48 225.969 192.256C225.414 192.032 224.811 191.92 224.161 191.92H221.633V200.88ZM220.401 202V190.8H224.097C224.95 190.8 225.734 190.939 226.449 191.216C227.163 191.493 227.782 191.883 228.305 192.384C228.838 192.885 229.249 193.477 229.537 194.16C229.835 194.843 229.985 195.589 229.985 196.4C229.985 197.211 229.841 197.957 229.553 198.64C229.265 199.323 228.854 199.915 228.321 200.416C227.798 200.917 227.174 201.307 226.449 201.584C225.734 201.861 224.95 202 224.097 202H220.401ZM233.292 202V193.984H234.476V202H233.292ZM233.884 192.448C233.671 192.448 233.484 192.368 233.324 192.208C233.164 192.048 233.084 191.856 233.084 191.632C233.084 191.419 233.164 191.237 233.324 191.088C233.484 190.928 233.671 190.848 233.884 190.848C234.108 190.848 234.295 190.928 234.444 191.088C234.604 191.237 234.684 191.424 234.684 191.648C234.684 191.861 234.604 192.048 234.444 192.208C234.295 192.368 234.108 192.448 233.884 192.448ZM240.64 202L237.168 193.984H238.48L241.216 200.464L243.952 193.984H245.216L241.76 202H240.64ZM247.899 202V193.984H249.083V202H247.899ZM248.491 192.448C248.277 192.448 248.091 192.368 247.931 192.208C247.771 192.048 247.691 191.856 247.691 191.632C247.691 191.419 247.771 191.237 247.931 191.088C248.091 190.928 248.277 190.848 248.491 190.848C248.715 190.848 248.901 190.928 249.051 191.088C249.211 191.237 249.291 191.424 249.291 191.648C249.291 191.861 249.211 192.048 249.051 192.208C248.901 192.368 248.715 192.448 248.491 192.448ZM256.366 202.128C255.619 202.128 254.936 201.947 254.318 201.584C253.71 201.211 253.224 200.715 252.862 200.096C252.51 199.467 252.334 198.763 252.334 197.984C252.334 197.205 252.51 196.507 252.862 195.888C253.224 195.269 253.71 194.779 254.318 194.416C254.936 194.043 255.624 193.856 256.382 193.856C256.851 193.856 257.304 193.936 257.742 194.096C258.179 194.245 258.579 194.469 258.942 194.768V190.8L260.126 190.528V202H258.958V201.152C258.254 201.803 257.39 202.128 256.366 202.128ZM256.478 201.088C256.979 201.088 257.443 200.992 257.87 200.8C258.307 200.597 258.664 200.32 258.942 199.968V196C258.664 195.659 258.307 195.392 257.87 195.2C257.443 194.997 256.979 194.896 256.478 194.896C255.923 194.896 255.416 195.029 254.958 195.296C254.51 195.563 254.152 195.931 253.886 196.4C253.63 196.859 253.502 197.381 253.502 197.968C253.502 198.555 253.63 199.083 253.886 199.552C254.152 200.021 254.51 200.395 254.958 200.672C255.416 200.949 255.923 201.088 256.478 201.088ZM267.499 202.144C266.731 202.144 266.033 201.963 265.403 201.6C264.785 201.227 264.289 200.725 263.915 200.096C263.553 199.467 263.371 198.763 263.371 197.984C263.371 197.216 263.547 196.523 263.899 195.904C264.251 195.275 264.726 194.779 265.323 194.416C265.921 194.043 266.587 193.856 267.323 193.856C268.038 193.856 268.678 194.043 269.243 194.416C269.819 194.779 270.273 195.275 270.603 195.904C270.945 196.523 271.115 197.216 271.115 197.984V198.352H264.539C264.603 198.875 264.769 199.344 265.035 199.76C265.313 200.176 265.67 200.507 266.107 200.752C266.545 200.987 267.025 201.104 267.547 201.104C267.963 201.104 268.369 201.04 268.763 200.912C269.158 200.784 269.489 200.603 269.755 200.368L270.491 201.152C270.043 201.483 269.574 201.733 269.083 201.904C268.603 202.064 268.075 202.144 267.499 202.144ZM264.571 197.408H269.931C269.867 196.928 269.707 196.501 269.451 196.128C269.206 195.744 268.897 195.445 268.523 195.232C268.15 195.008 267.739 194.896 267.291 194.896C266.833 194.896 266.411 195.003 266.027 195.216C265.643 195.429 265.323 195.728 265.067 196.112C264.811 196.485 264.646 196.917 264.571 197.408ZM274.371 202V193.984H275.555V194.928C276.184 194.192 277.027 193.824 278.083 193.824C278.691 193.824 279.224 193.957 279.683 194.224C280.152 194.48 280.515 194.843 280.771 195.312C281.037 195.771 281.171 196.309 281.171 196.928V202H280.003V197.168C280.003 196.453 279.8 195.893 279.395 195.488C279 195.072 278.456 194.864 277.763 194.864C277.283 194.864 276.856 194.971 276.483 195.184C276.109 195.397 275.8 195.701 275.555 196.096V202H274.371ZM288.416 202.128C287.669 202.128 286.986 201.947 286.368 201.584C285.76 201.211 285.274 200.715 284.912 200.096C284.56 199.467 284.384 198.763 284.384 197.984C284.384 197.205 284.56 196.507 284.912 195.888C285.274 195.269 285.76 194.779 286.368 194.416C286.986 194.043 287.674 193.856 288.432 193.856C288.901 193.856 289.354 193.936 289.792 194.096C290.229 194.245 290.629 194.469 290.992 194.768V190.8L292.176 190.528V202H291.008V201.152C290.304 201.803 289.44 202.128 288.416 202.128ZM288.528 201.088C289.029 201.088 289.493 200.992 289.92 200.8C290.357 200.597 290.714 200.32 290.992 199.968V196C290.714 195.659 290.357 195.392 289.92 195.2C289.493 194.997 289.029 194.896 288.528 194.896C287.973 194.896 287.466 195.029 287.008 195.296C286.56 195.563 286.202 195.931 285.936 196.4C285.68 196.859 285.552 197.381 285.552 197.968C285.552 198.555 285.68 199.083 285.936 199.552C286.202 200.021 286.56 200.395 287.008 200.672C287.466 200.949 287.973 201.088 288.528 201.088ZM299.517 202.16C298.76 202.16 298.067 201.979 297.437 201.616C296.819 201.243 296.328 200.741 295.965 200.112C295.603 199.483 295.421 198.779 295.421 198C295.421 197.221 295.603 196.517 295.965 195.888C296.328 195.259 296.819 194.763 297.437 194.4C298.067 194.027 298.76 193.84 299.517 193.84C300.285 193.84 300.979 194.027 301.597 194.4C302.216 194.763 302.707 195.259 303.069 195.888C303.432 196.517 303.613 197.221 303.613 198C303.613 198.779 303.432 199.483 303.069 200.112C302.707 200.741 302.216 201.243 301.597 201.616C300.979 201.979 300.285 202.16 299.517 202.16ZM299.517 201.104C300.061 201.104 300.552 200.965 300.989 200.688C301.437 200.411 301.789 200.037 302.045 199.568C302.312 199.099 302.445 198.576 302.445 198C302.445 197.413 302.312 196.891 302.045 196.432C301.789 195.963 301.437 195.589 300.989 195.312C300.552 195.035 300.061 194.896 299.517 194.896C298.973 194.896 298.477 195.035 298.029 195.312C297.592 195.589 297.24 195.963 296.973 196.432C296.717 196.891 296.589 197.413 296.589 198C296.589 198.576 296.717 199.099 296.973 199.568C297.24 200.037 297.592 200.411 298.029 200.688C298.477 200.965 298.973 201.104 299.517 201.104ZM309.418 202.16C308.757 202.16 308.133 202.053 307.546 201.84C306.97 201.616 306.469 201.307 306.042 200.912L306.762 200.144C307.135 200.485 307.546 200.752 307.994 200.944C308.442 201.125 308.901 201.216 309.37 201.216C310.01 201.216 310.533 201.083 310.938 200.816C311.343 200.549 311.546 200.203 311.546 199.776C311.546 199.424 311.423 199.152 311.178 198.96C310.943 198.757 310.57 198.619 310.058 198.544L308.666 198.352C307.866 198.235 307.269 197.995 306.874 197.632C306.49 197.269 306.298 196.779 306.298 196.16C306.298 195.712 306.426 195.312 306.682 194.96C306.938 194.608 307.29 194.331 307.738 194.128C308.197 193.925 308.719 193.824 309.306 193.824C309.893 193.824 310.442 193.909 310.954 194.08C311.466 194.251 311.967 194.517 312.458 194.88L311.834 195.68C311.386 195.371 310.949 195.147 310.522 195.008C310.106 194.859 309.679 194.784 309.242 194.784C308.687 194.784 308.239 194.907 307.898 195.152C307.557 195.397 307.386 195.717 307.386 196.112C307.386 196.475 307.503 196.752 307.738 196.944C307.973 197.125 308.351 197.253 308.874 197.328L310.266 197.52C311.066 197.627 311.663 197.861 312.058 198.224C312.463 198.587 312.666 199.083 312.666 199.712C312.666 200.171 312.522 200.587 312.234 200.96C311.946 201.333 311.557 201.627 311.066 201.84C310.586 202.053 310.037 202.16 309.418 202.16Z" fill="white"/>
<g clip-path="url(#clip0_1_343)">
<path d="M73.719 190.415H69.7306V205.474H73.719V190.415Z" fill="#19C819"/>
<path d="M81.0416 187.419H77.0532V205.474H81.0416V187.419Z" fill="#19C819"/>
<path d="M88.3516 186H84.3632V205.474H88.3516V186Z" fill="#19C819"/>
<path d="M67 205.474H91" stroke="#19C819" stroke-width="2" stroke-miterlimit="10"/>
</g>
<g filter="url(#filter2_f_1_343)">
<ellipse cx="190" cy="332.5" rx="94" ry="48.5" fill="url(#paint4_radial_1_343)"/>
</g>
<rect x="10.5" y="298.5" width="228" height="61" rx="15.5" fill="#131516"/>
<rect x="10.5" y="298.5" width="228" height="61" rx="15.5" stroke="#4D5358"/>
<rect x="26.5" y="306.5" width="50" height="45" rx="7.5" fill="#131313"/>
<rect x="26.5" y="306.5" width="50" height="45" rx="7.5" stroke="#4D5358"/>
<g clip-path="url(#clip1_1_343)">
<path d="M53.972 318V323.481C53.3387 323.37 52.6843 323.324 51.9965 323.324C51.2752 323.324 50.5874 323.377 49.9259 323.495V318H53.972Z" fill="#00F0C9"/>
<path d="M61 331.76C61 333.33 60.6024 334.763 59.8126 336.051C59.0297 337.332 57.9513 338.352 56.595 339.111C55.2334 339.863 53.7011 340.235 51.9947 340.235C50.2883 340.235 48.7912 339.862 47.4296 339.111C46.0733 338.352 44.9949 337.332 44.1927 336.051C43.3976 334.763 42.9982 333.33 42.9982 331.76C42.9982 330.191 43.3958 328.732 44.1927 327.444C44.9949 326.163 46.0751 325.143 47.4296 324.402C48.2125 323.978 49.0411 323.671 49.9242 323.493V326.914C48.1368 327.666 46.8896 329.399 46.8896 331.407C46.8896 334.114 49.1554 336.312 51.9472 336.312C54.7391 336.312 57.0049 334.114 57.0049 331.407C57.0049 329.399 55.7576 327.666 53.9703 326.914V323.474C54.8868 323.652 55.7506 323.959 56.5598 324.402C57.9214 325.141 59.0016 326.161 59.7967 327.444C60.5919 328.732 60.9965 330.172 60.9965 331.76H61Z" fill="#00F0C9"/>
</g>
<path d="M95.326 335.198C94.414 335.198 93.562 335.036 92.77 334.712C91.978 334.376 91.282 333.914 90.682 333.326C90.082 332.726 89.614 332.036 89.278 331.256C88.954 330.464 88.792 329.612 88.792 328.7C88.792 327.788 88.954 326.942 89.278 326.162C89.614 325.37 90.082 324.68 90.682 324.092C91.282 323.492 91.978 323.03 92.77 322.706C93.562 322.37 94.414 322.202 95.326 322.202C95.986 322.202 96.616 322.286 97.216 322.454C97.828 322.61 98.392 322.844 98.908 323.156C99.436 323.456 99.904 323.828 100.312 324.272L99.394 325.244C98.902 324.68 98.296 324.248 97.576 323.948C96.856 323.636 96.106 323.48 95.326 323.48C94.594 323.48 93.916 323.612 93.292 323.876C92.668 324.14 92.122 324.512 91.654 324.992C91.198 325.46 90.838 326.012 90.574 326.648C90.322 327.272 90.196 327.956 90.196 328.7C90.196 329.432 90.322 330.116 90.574 330.752C90.838 331.388 91.204 331.946 91.672 332.426C92.14 332.894 92.686 333.26 93.31 333.524C93.946 333.788 94.63 333.92 95.362 333.92C96.142 333.92 96.886 333.77 97.594 333.47C98.302 333.158 98.896 332.732 99.376 332.192L100.276 333.128C99.856 333.56 99.382 333.932 98.854 334.244C98.338 334.556 97.78 334.796 97.18 334.964C96.58 335.12 95.962 335.198 95.326 335.198ZM107.855 335.18C107.003 335.18 106.223 334.976 105.515 334.568C104.819 334.148 104.267 333.584 103.859 332.876C103.451 332.168 103.247 331.376 103.247 330.5C103.247 329.624 103.451 328.832 103.859 328.124C104.267 327.416 104.819 326.858 105.515 326.45C106.223 326.03 107.003 325.82 107.855 325.82C108.719 325.82 109.499 326.03 110.195 326.45C110.891 326.858 111.443 327.416 111.851 328.124C112.259 328.832 112.463 329.624 112.463 330.5C112.463 331.376 112.259 332.168 111.851 332.876C111.443 333.584 110.891 334.148 110.195 334.568C109.499 334.976 108.719 335.18 107.855 335.18ZM107.855 333.992C108.467 333.992 109.019 333.836 109.511 333.524C110.015 333.212 110.411 332.792 110.699 332.264C110.999 331.736 111.149 331.148 111.149 330.5C111.149 329.84 110.999 329.252 110.699 328.736C110.411 328.208 110.015 327.788 109.511 327.476C109.019 327.164 108.467 327.008 107.855 327.008C107.243 327.008 106.685 327.164 106.181 327.476C105.689 327.788 105.293 328.208 104.993 328.736C104.705 329.252 104.561 329.84 104.561 330.5C104.561 331.148 104.705 331.736 104.993 332.264C105.293 332.792 105.689 333.212 106.181 333.524C106.685 333.836 107.243 333.992 107.855 333.992ZM106.703 324.2L108.395 322.112H110.105L107.873 324.2H106.703ZM120.235 335.144C119.395 335.144 118.627 334.94 117.931 334.532C117.247 334.112 116.701 333.554 116.293 332.858C115.897 332.15 115.699 331.358 115.699 330.482C115.699 329.606 115.897 328.82 116.293 328.124C116.701 327.428 117.247 326.876 117.931 326.468C118.627 326.048 119.401 325.838 120.253 325.838C120.781 325.838 121.291 325.928 121.783 326.108C122.275 326.276 122.725 326.528 123.133 326.864V322.4L124.465 322.094V335H123.151V334.046C122.359 334.778 121.387 335.144 120.235 335.144ZM120.361 333.974C120.925 333.974 121.447 333.866 121.927 333.65C122.419 333.422 122.821 333.11 123.133 332.714V328.25C122.821 327.866 122.419 327.566 121.927 327.35C121.447 327.122 120.925 327.008 120.361 327.008C119.737 327.008 119.167 327.158 118.651 327.458C118.147 327.758 117.745 328.172 117.445 328.7C117.157 329.216 117.013 329.804 117.013 330.464C117.013 331.124 117.157 331.718 117.445 332.246C117.745 332.774 118.147 333.194 118.651 333.506C119.167 333.818 119.737 333.974 120.361 333.974ZM128.53 335V325.982H129.862V335H128.53ZM129.196 324.254C128.956 324.254 128.746 324.164 128.566 323.984C128.386 323.804 128.296 323.588 128.296 323.336C128.296 323.096 128.386 322.892 128.566 322.724C128.746 322.544 128.956 322.454 129.196 322.454C129.448 322.454 129.658 322.544 129.826 322.724C130.006 322.892 130.096 323.102 130.096 323.354C130.096 323.594 130.006 323.804 129.826 323.984C129.658 324.164 129.448 324.254 129.196 324.254ZM138.326 338.852C137.702 338.852 137.084 338.768 136.472 338.6C135.86 338.444 135.302 338.216 134.798 337.916L135.374 336.872C135.914 337.16 136.412 337.37 136.868 337.502C137.336 337.634 137.804 337.7 138.272 337.7C139.124 337.7 139.772 337.496 140.216 337.088C140.66 336.68 140.882 336.08 140.882 335.288V334.028C140.054 334.724 139.1 335.072 138.02 335.072C137.192 335.072 136.436 334.868 135.752 334.46C135.068 334.052 134.522 333.5 134.114 332.804C133.718 332.096 133.52 331.31 133.52 330.446C133.52 329.582 133.718 328.802 134.114 328.106C134.522 327.398 135.068 326.84 135.752 326.432C136.436 326.024 137.204 325.82 138.056 325.82C138.572 325.82 139.07 325.91 139.55 326.09C140.042 326.27 140.492 326.534 140.9 326.882V325.982H142.214V335.27C142.214 336.422 141.878 337.304 141.206 337.916C140.534 338.54 139.574 338.852 138.326 338.852ZM138.128 333.902C138.704 333.902 139.232 333.794 139.712 333.578C140.192 333.362 140.582 333.056 140.882 332.66V328.232C140.582 327.848 140.186 327.548 139.694 327.332C139.214 327.116 138.692 327.008 138.128 327.008C137.504 327.008 136.94 327.158 136.436 327.458C135.944 327.758 135.554 328.172 135.266 328.7C134.978 329.216 134.834 329.798 134.834 330.446C134.834 331.094 134.978 331.682 135.266 332.21C135.566 332.726 135.962 333.14 136.454 333.452C136.958 333.752 137.516 333.902 138.128 333.902ZM150.474 335.18C149.622 335.18 148.842 334.976 148.134 334.568C147.438 334.148 146.886 333.584 146.478 332.876C146.07 332.168 145.866 331.376 145.866 330.5C145.866 329.624 146.07 328.832 146.478 328.124C146.886 327.416 147.438 326.858 148.134 326.45C148.842 326.03 149.622 325.82 150.474 325.82C151.338 325.82 152.118 326.03 152.814 326.45C153.51 326.858 154.062 327.416 154.47 328.124C154.878 328.832 155.082 329.624 155.082 330.5C155.082 331.376 154.878 332.168 154.47 332.876C154.062 333.584 153.51 334.148 152.814 334.568C152.118 334.976 151.338 335.18 150.474 335.18ZM150.474 333.992C151.086 333.992 151.638 333.836 152.13 333.524C152.634 333.212 153.03 332.792 153.318 332.264C153.618 331.736 153.768 331.148 153.768 330.5C153.768 329.84 153.618 329.252 153.318 328.736C153.03 328.208 152.634 327.788 152.13 327.476C151.638 327.164 151.086 327.008 150.474 327.008C149.862 327.008 149.304 327.164 148.8 327.476C148.308 327.788 147.912 328.208 147.612 328.736C147.324 329.252 147.18 329.84 147.18 330.5C147.18 331.148 147.324 331.736 147.612 332.264C147.912 332.792 148.308 333.212 148.8 333.524C149.304 333.836 149.862 333.992 150.474 333.992Z" fill="white"/>
<path d="M159.304 335.108C159.052 335.108 158.836 335.018 158.656 334.838C158.476 334.658 158.386 334.442 158.386 334.19C158.386 333.938 158.476 333.722 158.656 333.542C158.836 333.362 159.052 333.272 159.304 333.272C159.556 333.272 159.772 333.362 159.952 333.542C160.132 333.722 160.222 333.938 160.222 334.19C160.222 334.442 160.132 334.658 159.952 334.838C159.772 335.018 159.556 335.108 159.304 335.108ZM164.488 338.672V325.982H165.802V326.954C166.582 326.21 167.554 325.838 168.718 325.838C169.57 325.838 170.338 326.048 171.022 326.468C171.706 326.876 172.246 327.428 172.642 328.124C173.05 328.82 173.254 329.606 173.254 330.482C173.254 331.358 173.05 332.15 172.642 332.858C172.246 333.554 171.706 334.112 171.022 334.532C170.338 334.94 169.564 335.144 168.7 335.144C168.172 335.144 167.662 335.054 167.17 334.874C166.678 334.694 166.228 334.436 165.82 334.1V338.672H164.488ZM168.592 333.974C169.228 333.974 169.798 333.824 170.302 333.524C170.806 333.212 171.202 332.798 171.49 332.282C171.79 331.754 171.94 331.16 171.94 330.5C171.94 329.84 171.79 329.246 171.49 328.718C171.202 328.19 170.806 327.776 170.302 327.476C169.798 327.164 169.228 327.008 168.592 327.008C168.028 327.008 167.5 327.122 167.008 327.35C166.528 327.566 166.132 327.872 165.82 328.268V332.732C166.132 333.116 166.534 333.422 167.026 333.65C167.518 333.866 168.04 333.974 168.592 333.974ZM177.019 338.852C176.851 338.852 176.689 338.84 176.533 338.816C176.389 338.804 176.269 338.786 176.173 338.762V337.556C176.377 337.604 176.629 337.628 176.929 337.628C177.721 337.628 178.321 337.16 178.729 336.224L179.269 334.982L175.597 325.982H177.073L179.989 333.38L183.139 325.982H184.579L180.079 336.404C179.827 336.98 179.557 337.448 179.269 337.808C178.981 338.168 178.651 338.432 178.279 338.6C177.919 338.768 177.499 338.852 177.019 338.852Z" fill="#00F0C9"/>
<defs>
<filter id="filter0_f_1_343" x="161" y="0" width="148" height="117" filterUnits="userSpaceOnUse" color-interpolation-filters="sRGB">
<feFlood flood-opacity="0" result="BackgroundImageFix"/>
<feBlend mode="normal" in="SourceGraphic" in2="BackgroundImageFix" result="shape"/>
<feGaussianBlur stdDeviation="5" result="effect1_foregroundBlur_1_343"/>
</filter>
<filter id="filter1_f_1_343" x="0" y="137" width="208" height="117" filterUnits="userSpaceOnUse" color-interpolation-filters="sRGB">
<feFlood flood-opacity="0" result="BackgroundImageFix"/>
<feBlend mode="normal" in="SourceGraphic" in2="BackgroundImageFix" result="shape"/>
<feGaussianBlur stdDeviation="5" result="effect1_foregroundBlur_1_343"/>
</filter>
<filter id="filter2_f_1_343" x="86" y="274" width="208" height="117" filterUnits="userSpaceOnUse" color-interpolation-filters="sRGB">
<feFlood flood-opacity="0" result="BackgroundImageFix"/>
<feBlend mode="normal" in="SourceGraphic" in2="BackgroundImageFix" result="shape"/>
<feGaussianBlur stdDeviation="5" result="effect1_foregroundBlur_1_343"/>
</filter>
<radialGradient id="paint0_radial_1_343" cx="0" cy="0" r="1" gradientUnits="userSpaceOnUse" gradientTransform="translate(235 58.5) rotate(90) scale(48.5 64)">
<stop stop-color="#39FFD9"/>
<stop offset="1" stop-color="#131313" stop-opacity="0"/>
</radialGradient>
<linearGradient id="paint1_linear_1_343" x1="38" y1="62.9583" x2="59" y2="62.9583" gradientUnits="userSpaceOnUse">
<stop stop-color="#222729"/>
<stop offset="1" stop-color="#1CB799"/>
</linearGradient>
<linearGradient id="paint2_linear_1_343" x1="50.8333" y1="56.5417" x2="44.7083" y2="56.5417" gradientUnits="userSpaceOnUse">
<stop stop-color="#12D8B2"/>
<stop offset="1" stop-color="#131516"/>
</linearGradient>
<radialGradient id="paint3_radial_1_343" cx="0" cy="0" r="1" gradientUnits="userSpaceOnUse" gradientTransform="translate(104 195.5) rotate(90) scale(48.5 94)">
<stop stop-color="#D3D6DF"/>
<stop offset="1" stop-color="#131313" stop-opacity="0"/>
</radialGradient>
<radialGradient id="paint4_radial_1_343" cx="0" cy="0" r="1" gradientUnits="userSpaceOnUse" gradientTransform="translate(190 332.5) rotate(90) scale(48.5 94)">
<stop stop-color="#1CB799"/>
<stop offset="1" stop-color="#131313" stop-opacity="0"/>
</radialGradient>
<clipPath id="clip0_1_343">
<rect width="24" height="19.7904" fill="white" transform="translate(67 186)"/>
</clipPath>
<clipPath id="clip1_1_343">
<rect width="18" height="22.2353" fill="white" transform="translate(43 318)"/>
</clipPath>
</defs>
</svg>
