<?xml version="1.0" encoding="utf-8"?>
<!-- Generator: Adobe Illustrator 28.0.0, SVG Export Plug-In . SVG Version: 6.00 Build 0)  -->
<svg version="1.1" id="Layer_1" xmlns="http://www.w3.org/2000/svg" xmlns:xlink="http://www.w3.org/1999/xlink" x="0px" y="0px"
	 viewBox="0 0 74 103.4" style="enable-background:new 0 0 74 103.4;" xml:space="preserve">
<style type="text/css">
	.st0{fill:#F2F4F8;}
	.st1{fill:#131313;}
	.st2{clip-path:url(#SVGID_00000133502191463745399310000007581416520601467037_);}
	.st3{fill:#E2E5EB;}
</style>
<path class="st0" d="M8,0h58c4.4,0,8,3.6,8,8v58c0,4.4-3.6,8-8,8H8c-4.4,0-8-3.6-8-8V8C0,3.6,3.6,0,8,0z"/>
<path class="st1" d="M47.8,29.3c0,0-2.9,14.6-22.1,12c0,0,0.4,11.2,6.3,15.7C32,57,51.5,52.1,47.8,29.3z"/>
<path class="st1" d="M40.8,17c0,5,2.2,14.6-6.6,21.7c0,0,11.8-1.1,12.7-11.6c0,0,0.2-1.1-2-5.2C43.2,18.8,40.8,17,40.8,17z"/>
<g>
	<defs>
		<rect id="SVGID_1_" y="90" width="74" height="13"/>
	</defs>
	<clipPath id="SVGID_00000071549509742123076530000009092265672990291620_">
		<use xlink:href="#SVGID_1_"  style="overflow:visible;"/>
	</clipPath>
	<g style="clip-path:url(#SVGID_00000071549509742123076530000009092265672990291620_);">
		<path class="st3" d="M6.1,102.7L0,90.3h3.4l4.2,9l4.4-9h3.1L9,102.7H6.1L6.1,102.7z"/>
		<path class="st3" d="M13.6,102.7l6.1-12.3h2.8l6.1,12.3h-3.2l-4.4-9.1l-4.4,9.1H13.6L13.6,102.7z"/>
		<path class="st3" d="M31,90.3h7.4c0.9,0,1.6,0.2,2.3,0.5c0.6,0.4,1.1,0.8,1.5,1.5c0.4,0.6,0.5,1.3,0.5,2.1c0,0.9-0.2,1.6-0.6,2.3
			c-0.4,0.7-0.9,1.1-1.5,1.4l2.8,4.5h-3.4l-2.4-4h-3.6v4h-3V96h7.4c0.4,0,0.7-0.1,1-0.4c0.2-0.3,0.4-0.6,0.4-1.1
			c0-0.5-0.1-0.9-0.4-1.1c-0.3-0.3-0.6-0.4-0.9-0.4H31L31,90.3L31,90.3z"/>
		<path class="st3" d="M48.7,102.2c-1.1-0.6-2-1.3-2.7-2.3c-0.7-1-1-2.1-1-3.3c0-1.2,0.3-2.4,1-3.3c0.7-1,1.6-1.8,2.7-2.3
			c1.1-0.6,2.4-0.8,3.7-0.8c1.4,0,2.6,0.3,3.7,0.8c1.1,0.6,2,1.3,2.7,2.3c0.7,1,1,2.1,1,3.3c0,1.2-0.3,2.4-1,3.3
			c-0.7,1-1.6,1.8-2.7,2.3c-1.1,0.6-2.4,0.8-3.7,0.8S49.8,102.7,48.7,102.2z M54.7,99.7c0.7-0.3,1.2-0.7,1.6-1.2
			c0.4-0.5,0.6-1.2,0.6-2c0-0.8-0.2-1.4-0.6-2c-0.4-0.5-1-1-1.6-1.2c-0.7-0.3-1.4-0.4-2.2-0.4s-1.5,0.1-2.2,0.4
			c-0.7,0.3-1.2,0.7-1.7,1.2c-0.4,0.5-0.6,1.2-0.6,2c0,0.8,0.2,1.4,0.6,2c0.4,0.5,1,1,1.7,1.3c0.7,0.3,1.4,0.4,2.2,0.4
			S54,100,54.7,99.7L54.7,99.7z"/>
		<path class="st3" d="M65.4,102.7c-0.8-0.2-1.5-0.5-2.1-0.9c-0.6-0.4-1.1-0.8-1.5-1.3l1.9-2.1c0.3,0.3,0.6,0.6,1,0.9
			c0.4,0.3,0.9,0.5,1.4,0.7c0.5,0.2,1.2,0.3,1.8,0.3c0.7,0,1.2-0.1,1.7-0.3c0.5-0.2,0.9-0.4,1.2-0.7c0.3-0.3,0.4-0.5,0.4-0.7
			c0-0.2-0.1-0.4-0.4-0.5c-0.2-0.1-0.6-0.2-1-0.2c-0.4-0.1-0.9-0.1-1.5-0.1c-0.5,0-1.1-0.1-1.6-0.1c-0.6-0.1-1.1-0.2-1.7-0.3
			c-0.5-0.1-1-0.3-1.4-0.6c-0.4-0.3-0.8-0.6-1-1.1c-0.3-0.5-0.4-1-0.4-1.7c0-0.7,0.2-1.3,0.7-1.9c0.5-0.6,1.1-1.1,2-1.5
			c0.9-0.4,1.9-0.6,3-0.6c0.9,0,1.7,0.1,2.4,0.3c0.7,0.2,1.3,0.5,1.8,0.8c0.5,0.3,1,0.7,1.4,1.2l-1.9,1.9c-0.3-0.3-0.7-0.6-1-0.8
			c-0.3-0.2-0.7-0.4-1.1-0.5c-0.4-0.1-1-0.2-1.6-0.2c-0.8,0-1.5,0.1-2.1,0.4c-0.6,0.3-0.9,0.6-0.9,0.9c0,0.3,0.1,0.5,0.4,0.6
			c0.3,0.1,0.7,0.3,1.1,0.3c0.5,0.1,1,0.1,1.6,0.2c0.7,0.1,1.3,0.1,2,0.2c0.7,0.1,1.3,0.3,1.9,0.5c0.6,0.2,1.1,0.6,1.5,1
			c0.4,0.5,0.6,1.1,0.6,1.8c0,0.8-0.2,1.4-0.7,2.1c-0.5,0.7-1.2,1.2-2.1,1.6c-0.9,0.4-2,0.6-3.3,0.6C67,103,66.1,102.9,65.4,102.7
			L65.4,102.7z"/>
	</g>
</g>
</svg>
