<svg width="47" height="47" viewBox="0 0 47 47" fill="none" xmlns="http://www.w3.org/2000/svg">
<path fill-rule="evenodd" clip-rule="evenodd" d="M23.5 47C36.4787 47 47 36.4787 47 23.5C47 10.5213 36.4787 0 23.5 0C10.5213 0 0 10.5213 0 23.5C0 36.4787 10.5213 47 23.5 47ZM23.5 40C32.6127 40 40 32.6127 40 23.5C40 14.3873 32.6127 7 23.5 7C14.3873 7 7 14.3873 7 23.5C7 32.6127 14.3873 40 23.5 40Z" fill="#19C819"/>
<path d="M14.2539 26.9086V22.2465L13 22.7202V21.723L14.7115 21.0914H15.5077V26.9086H14.2539Z" fill="#19C819"/>
<path d="M19.1287 27C18.5734 27 18.0823 26.8753 17.6551 26.626C17.2341 26.3712 16.9047 26.0194 16.6667 25.5706C16.4348 25.1163 16.3189 24.5928 16.3189 24C16.3189 23.4017 16.4348 22.8781 16.6667 22.4294C16.9047 21.9806 17.2341 21.6316 17.6551 21.3823C18.0823 21.1274 18.5734 21 19.1287 21C19.69 21 20.1812 21.1274 20.6022 21.3823C21.0293 21.6316 21.3588 21.9806 21.5906 22.4294C21.8286 22.8781 21.9476 23.4017 21.9476 24C21.9476 24.5928 21.8286 25.1163 21.5906 25.5706C21.3588 26.0194 21.0293 26.3712 20.6022 26.626C20.1812 26.8753 19.69 27 19.1287 27ZM19.1287 26.0111C19.4581 26.0111 19.7419 25.9307 19.9798 25.7701C20.2178 25.6094 20.4008 25.3767 20.529 25.072C20.6632 24.7673 20.7303 24.41 20.7303 24C20.7303 23.5845 20.6632 23.2271 20.529 22.928C20.4008 22.6233 20.2178 22.3906 19.9798 22.2299C19.7419 22.0693 19.4581 21.9889 19.1287 21.9889C18.8053 21.9889 18.5246 22.0693 18.2867 22.2299C18.0487 22.3906 17.8626 22.6233 17.7284 22.928C17.6002 23.2271 17.5362 23.5845 17.5362 24C17.5362 24.41 17.6002 24.7673 17.7284 25.072C17.8626 25.3767 18.0487 25.6094 18.2867 25.7701C18.5246 25.9307 18.8053 26.0111 19.1287 26.0111Z" fill="#19C819"/>
<path d="M25.394 27C24.8388 27 24.3476 26.8753 23.9205 26.626C23.4995 26.3712 23.17 26.0194 22.9321 25.5706C22.7002 25.1163 22.5843 24.5928 22.5843 24C22.5843 23.4017 22.7002 22.8781 22.9321 22.4294C23.17 21.9806 23.4995 21.6316 23.9205 21.3823C24.3476 21.1274 24.8388 21 25.394 21C25.9554 21 26.4466 21.1274 26.8676 21.3823C27.2947 21.6316 27.6241 21.9806 27.856 22.4294C28.094 22.8781 28.2129 23.4017 28.2129 24C28.2129 24.5928 28.094 25.1163 27.856 25.5706C27.6241 26.0194 27.2947 26.3712 26.8676 26.626C26.4466 26.8753 25.9554 27 25.394 27ZM25.394 26.0111C25.7235 26.0111 26.0072 25.9307 26.2452 25.7701C26.4832 25.6094 26.6662 25.3767 26.7943 25.072C26.9286 24.7673 26.9957 24.41 26.9957 24C26.9957 23.5845 26.9286 23.2271 26.7943 22.928C26.6662 22.6233 26.4832 22.3906 26.2452 22.2299C26.0072 22.0693 25.7235 21.9889 25.394 21.9889C25.0707 21.9889 24.79 22.0693 24.552 22.2299C24.3141 22.3906 24.128 22.6233 23.9937 22.928C23.8656 23.2271 23.8015 23.5845 23.8015 24C23.8015 24.41 23.8656 24.7673 23.9937 25.072C24.128 25.3767 24.3141 25.6094 24.552 25.7701C24.79 25.9307 25.0707 26.0111 25.394 26.0111Z" fill="#19C819"/>
<path d="M29.1059 26.9086V21.0914H30.433V23.6925L33.2336 21.0914H34.8536L31.7418 23.8587L35 26.9086H33.2245L30.433 24.2078V26.9086H29.1059Z" fill="#19C819"/>
</svg>
