<svg width="104" height="128" viewBox="0 0 104 128" fill="none" xmlns="http://www.w3.org/2000/svg">
<g clip-path="url(#clip0_1_1339)">
<path d="M63.1619 0V31.5532C59.5162 30.9148 55.7489 30.6497 51.7893 30.6497C47.6373 30.6497 43.6776 30.9541 39.8699 31.6317V0H63.1619Z" fill="#00F0C9"/>
<path d="M103.619 79.2119C103.619 88.2468 101.33 96.496 96.7835 103.91C92.277 111.286 86.0691 117.158 78.2613 121.528C70.423 125.859 61.6024 128 51.7793 128C41.9561 128 33.3381 125.849 25.4998 121.528C17.6919 117.158 11.4841 111.286 6.8662 103.91C2.28881 96.496 -0.0100098 88.2468 -0.0100098 79.2119C-0.0100098 70.1771 2.27868 61.7806 6.8662 54.3661C11.4841 46.991 17.702 41.1183 25.4998 36.8563C30.0063 34.411 34.7761 32.6433 39.8598 31.6219V51.312C29.5708 55.6428 22.3908 65.6204 22.3908 77.1791C22.3908 92.7642 35.4343 105.413 51.5058 105.413C67.5773 105.413 80.6208 92.7642 80.6208 77.1791C80.6208 65.6204 73.4408 55.6428 63.1518 51.312V31.5139C68.428 32.5352 73.4003 34.3029 78.0587 36.8563C85.897 41.1085 92.1149 46.9812 96.6923 54.3661C101.27 61.7806 103.599 70.0691 103.599 79.2119H103.619Z" fill="#00F0C9"/>
</g>
<defs>
<clipPath id="clip0_1_1339">
<rect width="103.619" height="128" fill="white"/>
</clipPath>
</defs>
</svg>
