<svg width="15" height="23" viewBox="0 0 15 23" fill="none" xmlns="http://www.w3.org/2000/svg">
<path d="M7.89993 19.5861C5.47571 19.5861 3.68974 17.6642 3.68974 15.2748C3.68974 12.8853 5.47845 10.9229 7.89993 10.9229C9.69686 10.9229 11.2473 11.9906 11.9211 13.5205H14.9808C14.9808 13.5205 14.9753 13.5043 14.9753 13.4935L15 0L10.7789 0.794688V8.26584C9.80095 7.81713 8.73813 7.58738 7.58492 7.58738C6.17969 7.58738 4.89774 7.92796 3.74452 8.60912C2.59679 9.29569 1.68462 10.2201 1.0053 11.3824C0.331446 12.5501 0 13.853 0 15.291C0 16.729 0.334186 18.0643 1.0053 19.2293C1.68462 20.3889 2.59679 21.3133 3.74452 21.9837C4.89774 22.6594 6.17969 23 7.58492 23C8.99014 23 10.294 22.654 11.4472 21.9729C12.595 21.2917 13.5071 20.3673 14.17 19.1996C14.5672 18.5076 14.8439 17.767 15 16.9831H11.9211C11.2473 18.513 9.69686 19.5807 7.89993 19.5807V19.5861Z" fill="#00F0C9"/>
</svg>
