<svg width="41" height="33" viewBox="0 0 41 33" fill="none" xmlns="http://www.w3.org/2000/svg">
<path d="M34.2725 2.23145C42.0827 10.0421 42.0817 22.704 34.2715 30.5146L31.4434 27.6865C25.1909 33.9387 15.0584 33.9447 8.79883 27.7041L5.9873 30.5146C-1.82236 22.7039 -1.82269 10.042 5.9873 2.23145L11.7139 7.95703C11.6569 8.0118 11.6001 8.06693 11.5439 8.12305C6.89486 12.7722 6.89486 20.3108 11.5439 24.96C16.1929 29.6085 23.7299 29.6085 28.3789 24.96C33.028 20.3108 33.028 12.7722 28.3789 8.12305L34.2725 2.23145ZM8.81641 5.05957C15.0649 -1.18884 25.1949 -1.18881 31.4434 5.05957L28.3789 8.12305C23.7861 3.53057 16.3748 3.47546 11.7139 7.95703L8.81641 5.05957Z" fill="#818181"/>
</svg>