<svg width="34" height="38" viewBox="0 0 34 38" fill="none" xmlns="http://www.w3.org/2000/svg">
<path d="M7.36088 24.3768H1.50999C0.673409 24.3768 0 23.6981 0 22.8667V1.51543C0 0.678849 0.678671 0.00537109 1.50999 0.00537109H7.36088C8.19746 0.00537109 8.87087 0.68411 8.87087 1.51543V22.8667C8.87087 23.7033 8.1922 24.3768 7.36088 24.3768Z" fill="#19C819"/>
<path d="M25.1291 25.6343V5.53003C25.1291 5.01966 25.65 4.604 26.2919 4.604H32.8372C33.4791 4.604 34 5.01966 34 5.53003V36.7888C34 37.2992 33.4791 37.7148 32.8372 37.7148H26.2392C25.5921 37.7148 25.0712 37.2992 25.0765 36.7888L25.1291 25.6343Z" fill="#19C819"/>
<path d="M4.43018 22.6245V36.7202" stroke="#19C819" stroke-width="2" stroke-miterlimit="10"/>
<path d="M29.5435 0V5.69824" stroke="#19C819" stroke-width="2" stroke-miterlimit="10"/>
<path d="M13.3223 19.8412L19.3887 29.2593C19.6623 29.6855 20.32 29.4856 20.3147 28.9805L20.1359 17.7787L14.0588 8.34475C13.7905 7.92383 13.1328 8.12376 13.1433 8.62361L13.3223 19.8465V19.8412Z" fill="#19C819"/>
</svg>
