<svg width="24" height="24" viewBox="0 0 24 24" fill="none" xmlns="http://www.w3.org/2000/svg">
<g clip-path="url(#clip0_291_67)">
<path d="M2.82353 11.1576H2.82353C1.26414 11.1576 0 12.3809 0 13.89V20.038C0 21.5471 1.26414 22.7705 2.82353 22.7705C4.38293 22.7705 5.64706 21.5471 5.64706 20.038V13.89C5.64706 12.3809 4.38293 11.1576 2.82353 11.1576Z" fill="#19C819"/>
<path d="M12 4.32649H12C10.4407 4.32649 9.17651 5.54984 9.17651 7.05893V20.0381C9.17651 21.5471 10.4407 22.7705 12 22.7705C13.5594 22.7705 14.8236 21.5471 14.8236 20.0381V7.05893C14.8236 5.54984 13.5594 4.32649 12 4.32649Z" fill="#878D96"/>
<path d="M21.1766 0H21.1766C19.6172 0 18.353 1.22336 18.353 2.73245V20.038C18.353 21.547 19.6172 22.7704 21.1766 22.7704C22.736 22.7704 24.0001 21.547 24.0001 20.038V2.73245C24.0001 1.22336 22.736 0 21.1766 0Z" fill="#239A83"/>
</g>
<defs>
<clipPath id="clip0_291_67">
<rect width="24" height="23.2258" fill="white"/>
</clipPath>
</defs>
</svg>
