<svg width="30" height="30" viewBox="0 0 30 30" fill="none" xmlns="http://www.w3.org/2000/svg">
<mask id="mask0_125_977" style="mask-type:luminance" maskUnits="userSpaceOnUse" x="1" y="0" width="29" height="30">
<path d="M29.5975 15.0101C29.5975 7.17316 23.2444 0.820099 15.4075 0.820099C7.57059 0.820099 1.21753 7.17316 1.21753 15.0101C1.21753 22.847 7.57059 29.2 15.4075 29.2C23.2444 29.2 29.5975 22.847 29.5975 15.0101Z" fill="white"/>
</mask>
<g mask="url(#mask0_125_977)">
<path fill-rule="evenodd" clip-rule="evenodd" d="M2.35453 -9.12947C-3.18726 -9.12947 -7.67977 -4.63696 -7.67977 0.904835V18.9645C-7.67977 24.5063 -3.18726 28.9988 2.35453 28.9988H20.4142C25.956 28.9988 30.4485 24.5063 30.4485 18.9645V0.904835C30.4485 -4.63696 25.956 -9.12947 20.4142 -9.12947H2.35453ZM-8.08228 0.904835C-8.08228 -4.85926 -3.40956 -9.53197 2.35453 -9.53197H20.4142C26.1783 -9.53197 30.851 -4.85926 30.851 0.904835V18.9645C30.851 24.7286 26.1783 29.4013 20.4142 29.4013H2.35453C-3.40956 29.4013 -8.08228 24.7286 -8.08228 18.9645V0.904835Z" fill="#E2E5EB"/>
<path fill-rule="evenodd" clip-rule="evenodd" d="M16.9187 1.37794C8.7659 1.37794 2.15675 7.98709 2.15675 16.1399C2.15675 24.2927 8.7659 30.9018 16.9187 30.9018C25.0715 30.9018 31.6806 24.2927 31.6806 16.1399C31.6806 7.98709 25.0715 1.37794 16.9187 1.37794ZM-1.35278 16.1399C-1.35278 6.04883 6.82764 -2.13159 16.9187 -2.13159C27.0098 -2.13159 35.1902 6.04883 35.1902 16.1399C35.1902 26.2309 27.0098 34.4114 16.9187 34.4114C6.82764 34.4114 -1.35278 26.2309 -1.35278 16.1399Z" fill="#E2E5EB"/>
<path fill-rule="evenodd" clip-rule="evenodd" d="M12.5683 6.05204C11.2633 8.59613 10.4221 12.1909 10.4221 16.2246C10.4221 20.2583 11.2633 23.8531 12.5683 26.3972C13.9044 29.002 15.544 30.2027 17.0317 30.2027C18.5193 30.2027 20.1589 29.002 21.495 26.3972C22.8 23.8531 23.6412 20.2583 23.6412 16.2246C23.6412 12.1909 22.8 8.59613 21.495 6.05204C20.1589 3.44721 18.5193 2.2465 17.0317 2.2465C15.544 2.2465 13.9044 3.44721 12.5683 6.05204ZM10.52 5.00138C11.9926 2.13054 14.2333 -0.0555267 17.0317 -0.0555267C19.8301 -0.0555267 22.0707 2.13054 23.5433 5.00138C25.0471 7.93296 25.9432 11.9027 25.9432 16.2246C25.9432 20.5465 25.0471 24.5163 23.5433 27.4479C22.0707 30.3187 19.8301 32.5048 17.0317 32.5048C14.2333 32.5048 11.9926 30.3187 10.52 27.4479C9.01624 24.5163 8.12012 20.5465 8.12012 16.2246C8.12012 11.9027 9.01624 7.93296 10.52 5.00138Z" fill="#E2E5EB"/>
<path fill-rule="evenodd" clip-rule="evenodd" d="M6.83072 11.6765C4.22588 13.0127 3.02517 14.6523 3.02517 16.1399C3.02517 17.6275 4.22588 19.2671 6.83072 20.6033C9.37481 21.9083 12.9696 22.7494 17.0033 22.7494C21.037 22.7494 24.6318 21.9083 27.1759 20.6033C29.7807 19.2671 30.9814 17.6275 30.9814 16.1399C30.9814 14.6523 29.7807 13.0127 27.1759 11.6765C24.6318 10.3715 21.037 9.53038 17.0033 9.53038C12.9696 9.53038 9.37481 10.3715 6.83072 11.6765ZM5.78005 9.62823C8.71163 8.12447 12.6814 7.22835 17.0033 7.22835C21.3252 7.22835 25.295 8.12447 28.2265 9.62823C31.0974 11.1008 33.2834 13.3415 33.2834 16.1399C33.2834 18.9383 31.0974 21.1789 28.2265 22.6515C25.295 24.1553 21.3252 25.0514 17.0033 25.0514C12.6814 25.0514 8.71163 24.1553 5.78005 22.6515C2.90921 21.1789 0.723145 18.9383 0.723145 16.1399C0.723145 13.3415 2.90921 11.1008 5.78005 9.62823Z" fill="#E2E5EB"/>
</g>
<path fill-rule="evenodd" clip-rule="evenodd" d="M15.4074 1.22261C7.7928 1.22261 1.61995 7.39547 1.61995 15.0101C1.61995 22.6247 7.7928 28.7975 15.4074 28.7975C23.022 28.7975 29.1949 22.6247 29.1949 15.0101C29.1949 7.39547 23.022 1.22261 15.4074 1.22261ZM0.814941 15.0101C0.814941 6.95087 7.34821 0.417603 15.4074 0.417603C23.4666 0.417603 29.9999 6.95087 29.9999 15.0101C29.9999 23.0693 23.4666 29.6025 15.4074 29.6025C7.34821 29.6025 0.814941 23.0693 0.814941 15.0101Z" fill="#E2E5EB"/>
</svg>
