<svg width="24" height="24" viewBox="0 0 24 24" fill="none" xmlns="http://www.w3.org/2000/svg">
<g id="Group">
<path id="Vector" d="M17.0073 23.4538C15.539 23.8189 13.8717 24 12.0053 24C10.1389 24 8.55695 23.8189 7.03185 23.4538C5.50318 23.0887 4.15938 22.612 2.99333 22.0176C1.82728 21.4262 0.828322 20.7231 0 19.9084L3.64746 16.4988C4.19138 17.0027 4.84195 17.4795 5.59562 17.926C6.35284 18.3756 7.26648 18.7679 8.3401 19.1088C9.41372 19.4498 10.626 19.6188 11.9804 19.6188C13.2567 19.6188 14.3943 19.4589 15.3968 19.136L17.0108 23.4538H17.0073Z" fill="#19C819"/>
<path id="Vector_2" d="M22.905 13.8798C22.1727 13.1255 21.2271 12.5522 20.0646 12.1629C18.9021 11.7737 17.6507 11.4901 16.3069 11.3151C14.9631 11.14 13.6371 11.0043 12.3324 10.9137C11.145 10.8293 10.0678 10.7237 9.10087 10.5999C8.13035 10.4732 7.38379 10.2922 6.85409 10.0538C6.32439 9.81543 6.06132 9.47749 6.06132 9.03997C6.06132 8.56021 6.67278 8.07744 7.89927 7.58561C9.12576 7.09378 10.5229 6.84938 12.0942 6.84938C13.3314 6.84938 14.3765 6.958 15.2368 7.17525C16.0972 7.3925 16.8473 7.67915 17.4836 8.03218C18.12 8.38521 18.7848 8.81971 19.478 9.34171L23.1859 6.19461C22.3362 5.43122 21.3942 4.77948 20.3632 4.24541C19.3287 3.70832 18.1235 3.27382 16.7371 2.94191C16.1754 2.80613 15.5746 2.70656 14.9524 2.62811V0H8.34365V2.7488C7.51177 2.89967 6.73678 3.10183 6.01866 3.36434C4.33713 3.97988 3.03955 4.79155 2.1259 5.79934C1.21226 6.80713 0.753662 7.88433 0.753662 9.03394C0.753662 10.1835 1.00962 11.14 1.5251 11.9034C2.04058 12.6668 2.71959 13.2763 3.5728 13.7289C4.42245 14.1815 5.3752 14.5225 6.42749 14.7488C7.47978 14.9751 8.56406 15.138 9.67323 15.2316L15.8625 15.66C16.7335 15.7475 17.3983 15.8893 17.864 16.0825C18.3297 16.2756 18.5608 16.5532 18.5608 16.9122C18.5608 17.223 18.2835 17.5911 17.7289 18.0136L22.5709 20.4033C23.5236 19.3261 24 18.1614 24 16.9122C24 15.663 23.6338 14.6341 22.9015 13.8798H22.905Z" fill="#878D96"/>
</g>
</svg>
